<mxfile host="app.diagrams.net" modified="2023-11-12T14:39:35.260Z" agent="Mozilla/5.0 (Windows NT 10.0; Win64; x64) AppleWebKit/537.36 (KHTML, like Gecko) Chrome/119.0.0.0 Safari/537.36" etag="cWFZ5Y8TYxPP74I01Kug" version="22.1.0" type="github">
  <diagram name="Страница — 1" id="UIwuyxUuAgWcMKRViX4k">
    <mxGraphModel dx="1071" dy="689" grid="1" gridSize="10" guides="1" tooltips="1" connect="1" arrows="1" fold="1" page="1" pageScale="1" pageWidth="827" pageHeight="1169" math="0" shadow="0">
      <root>
        <mxCell id="0" />
        <mxCell id="1" parent="0" />
        <mxCell id="mFbKZ_o9LPMVzAf8WOri-25" value="&lt;span style=&quot;white-space: pre;&quot;&gt;&#x9;&lt;/span&gt;Автомобиль" style="rounded=0;whiteSpace=wrap;html=1;" parent="1" vertex="1">
          <mxGeometry x="99.5" y="440" width="120" height="40" as="geometry" />
        </mxCell>
        <mxCell id="mFbKZ_o9LPMVzAf8WOri-110" style="edgeStyle=orthogonalEdgeStyle;rounded=0;orthogonalLoop=1;jettySize=auto;html=1;exitX=0;exitY=0.5;exitDx=0;exitDy=0;entryX=1;entryY=0.5;entryDx=0;entryDy=0;endArrow=blockThin;endFill=1;" parent="1" source="mFbKZ_o9LPMVzAf8WOri-26" target="mFbKZ_o9LPMVzAf8WOri-28" edge="1">
          <mxGeometry relative="1" as="geometry" />
        </mxCell>
        <mxCell id="mFbKZ_o9LPMVzAf8WOri-112" style="edgeStyle=orthogonalEdgeStyle;rounded=0;orthogonalLoop=1;jettySize=auto;html=1;exitX=0.5;exitY=1;exitDx=0;exitDy=0;entryX=0.5;entryY=0;entryDx=0;entryDy=0;endArrow=doubleBlock;endFill=1;" parent="1" source="mFbKZ_o9LPMVzAf8WOri-26" target="mFbKZ_o9LPMVzAf8WOri-25" edge="1">
          <mxGeometry relative="1" as="geometry" />
        </mxCell>
        <mxCell id="mFbKZ_o9LPMVzAf8WOri-26" value="Владеет" style="rhombus;whiteSpace=wrap;html=1;" parent="1" vertex="1">
          <mxGeometry x="122" y="360" width="75" height="40" as="geometry" />
        </mxCell>
        <mxCell id="mFbKZ_o9LPMVzAf8WOri-28" value="Клиент" style="rounded=0;whiteSpace=wrap;html=1;" parent="1" vertex="1">
          <mxGeometry y="360" width="80" height="40" as="geometry" />
        </mxCell>
        <mxCell id="mFbKZ_o9LPMVzAf8WOri-70" value="" style="endArrow=none;html=1;rounded=0;entryX=0.25;entryY=0;entryDx=0;entryDy=0;exitX=0.25;exitY=1;exitDx=0;exitDy=0;" parent="1" source="mFbKZ_o9LPMVzAf8WOri-25" target="mFbKZ_o9LPMVzAf8WOri-25" edge="1">
          <mxGeometry width="50" height="50" relative="1" as="geometry">
            <mxPoint x="128.5" y="520" as="sourcePoint" />
            <mxPoint x="178.5" y="470" as="targetPoint" />
          </mxGeometry>
        </mxCell>
        <mxCell id="mFbKZ_o9LPMVzAf8WOri-71" value="" style="shape=ellipse;fillColor=#000000;strokeColor=none;html=1;sketch=0;" parent="1" vertex="1">
          <mxGeometry x="108.5" y="455" width="10" height="10" as="geometry" />
        </mxCell>
        <mxCell id="mFbKZ_o9LPMVzAf8WOri-72" value="Оказываемая услуга" style="rounded=0;whiteSpace=wrap;html=1;" parent="1" vertex="1">
          <mxGeometry x="420" y="440" width="80" height="40" as="geometry" />
        </mxCell>
        <mxCell id="mFbKZ_o9LPMVzAf8WOri-113" style="edgeStyle=orthogonalEdgeStyle;rounded=0;orthogonalLoop=1;jettySize=auto;html=1;exitX=0;exitY=0.5;exitDx=0;exitDy=0;entryX=1;entryY=0.5;entryDx=0;entryDy=0;endArrow=block;endFill=1;" parent="1" source="mFbKZ_o9LPMVzAf8WOri-75" target="mFbKZ_o9LPMVzAf8WOri-25" edge="1">
          <mxGeometry relative="1" as="geometry" />
        </mxCell>
        <mxCell id="mFbKZ_o9LPMVzAf8WOri-114" style="edgeStyle=orthogonalEdgeStyle;rounded=0;orthogonalLoop=1;jettySize=auto;html=1;exitX=1;exitY=0.5;exitDx=0;exitDy=0;entryX=0;entryY=0.5;entryDx=0;entryDy=0;endArrow=block;endFill=1;" parent="1" source="mFbKZ_o9LPMVzAf8WOri-75" target="mFbKZ_o9LPMVzAf8WOri-72" edge="1">
          <mxGeometry relative="1" as="geometry" />
        </mxCell>
        <mxCell id="mFbKZ_o9LPMVzAf8WOri-75" value="Оказывается" style="rhombus;whiteSpace=wrap;html=1;" parent="1" vertex="1">
          <mxGeometry x="270" y="440" width="100" height="40" as="geometry" />
        </mxCell>
        <mxCell id="mFbKZ_o9LPMVzAf8WOri-89" value="Услуга" style="rounded=0;whiteSpace=wrap;html=1;" parent="1" vertex="1">
          <mxGeometry x="420" y="279" width="80" height="40" as="geometry" />
        </mxCell>
        <mxCell id="mFbKZ_o9LPMVzAf8WOri-120" style="edgeStyle=orthogonalEdgeStyle;rounded=0;orthogonalLoop=1;jettySize=auto;html=1;exitX=0.5;exitY=0;exitDx=0;exitDy=0;entryX=0.5;entryY=1;entryDx=0;entryDy=0;endArrow=block;endFill=1;" parent="1" source="mFbKZ_o9LPMVzAf8WOri-94" target="mFbKZ_o9LPMVzAf8WOri-89" edge="1">
          <mxGeometry relative="1" as="geometry" />
        </mxCell>
        <mxCell id="mFbKZ_o9LPMVzAf8WOri-126" style="edgeStyle=orthogonalEdgeStyle;rounded=0;orthogonalLoop=1;jettySize=auto;html=1;exitX=0.5;exitY=1;exitDx=0;exitDy=0;entryX=0.5;entryY=0;entryDx=0;entryDy=0;endArrow=block;endFill=1;" parent="1" source="mFbKZ_o9LPMVzAf8WOri-94" target="mFbKZ_o9LPMVzAf8WOri-72" edge="1">
          <mxGeometry relative="1" as="geometry" />
        </mxCell>
        <mxCell id="mFbKZ_o9LPMVzAf8WOri-94" value="Содержит" style="rhombus;whiteSpace=wrap;html=1;" parent="1" vertex="1">
          <mxGeometry x="410" y="358" width="100" height="40" as="geometry" />
        </mxCell>
        <mxCell id="mFbKZ_o9LPMVzAf8WOri-95" value="Сотрудник" style="rounded=0;whiteSpace=wrap;html=1;" parent="1" vertex="1">
          <mxGeometry x="700" y="440" width="80" height="40" as="geometry" />
        </mxCell>
        <mxCell id="mFbKZ_o9LPMVzAf8WOri-115" style="edgeStyle=orthogonalEdgeStyle;rounded=0;orthogonalLoop=1;jettySize=auto;html=1;exitX=0;exitY=0.5;exitDx=0;exitDy=0;entryX=1;entryY=0.5;entryDx=0;entryDy=0;endArrow=block;endFill=1;" parent="1" source="mFbKZ_o9LPMVzAf8WOri-104" target="mFbKZ_o9LPMVzAf8WOri-72" edge="1">
          <mxGeometry relative="1" as="geometry" />
        </mxCell>
        <mxCell id="mFbKZ_o9LPMVzAf8WOri-116" style="edgeStyle=orthogonalEdgeStyle;rounded=0;orthogonalLoop=1;jettySize=auto;html=1;exitX=1;exitY=0.5;exitDx=0;exitDy=0;entryX=0;entryY=0.5;entryDx=0;entryDy=0;endArrow=block;endFill=1;" parent="1" source="mFbKZ_o9LPMVzAf8WOri-104" target="mFbKZ_o9LPMVzAf8WOri-95" edge="1">
          <mxGeometry relative="1" as="geometry" />
        </mxCell>
        <mxCell id="mFbKZ_o9LPMVzAf8WOri-104" value="Выполняется" style="rhombus;whiteSpace=wrap;html=1;" parent="1" vertex="1">
          <mxGeometry x="550" y="440" width="100" height="40" as="geometry" />
        </mxCell>
      </root>
    </mxGraphModel>
  </diagram>
</mxfile>
